<svg xmlns="http://www.w3.org/2000/svg" width="96" height="96" viewBox="0 0 96 96" role="img" aria-labelledby="title desc">
<title id="title">ARGO CD</title>
<desc id="desc">Original presentation pictogram for ARGO CD; not an official vendor logo.</desc>
<defs><linearGradient id="bg" x2="1" y2="1"><stop stop-color="#101d35"/><stop offset="1" stop-color="#07111f"/></linearGradient><linearGradient id="accent" x2="1" y2="1"><stop stop-color="#53e3c2"/><stop offset="1" stop-color="#70b9ff"/></linearGradient><pattern id="grid" width="32" height="32" patternUnits="userSpaceOnUse"><circle cx="1" cy="1" r="1" fill="#476079" opacity=".23"/></pattern>
<marker id="arrow" markerWidth="7" markerHeight="7" refX="6" refY="3.5" orient="auto"><path d="M0 0L7 3.5L0 7" fill="#829db8"/></marker></defs>
<rect width="96" height="96" rx="22" fill="url(#bg)"/>
<rect width="96" height="96" rx="22" fill="url(#grid)"/>
<g font-family="DejaVu Sans,Arial,sans-serif">
<rect x="1" y="1" width="94" height="94" rx="18" fill="#102039" stroke="#2e435e"/>
<g transform="translate(17 11) scale(1.3)" fill="none" stroke="#ffc776" stroke-width="2.2" stroke-linecap="round" stroke-linejoin="round"><path d="M8 27C8 8 40 8 40 27V35H8Z"/><circle cx="18" cy="26" r="2"/><circle cx="30" cy="26" r="2"/><path d="M10 35V42M18 35V45M26 35V43M34 35V45M40 35V40"/></g>
<text x="48" y="84" font-size="10" fill="#a9bbd1" font-weight="700" text-anchor="middle">ARGO CD</text>
</g></svg>
